<svg width="327" height="137" viewBox="0 0 327 137" fill="none" xmlns="http://www.w3.org/2000/svg">
<rect y="19" width="327" height="118" rx="12" fill="#EE3B34"/>
<rect x="158" y="102" width="68" height="26" rx="13" fill="black"/>
<path d="M180.502 118.549V109.822H183.698C184.317 109.822 184.83 109.924 185.236 110.129C185.642 110.331 185.946 110.605 186.148 110.951C186.35 111.295 186.451 111.683 186.451 112.115C186.451 112.478 186.384 112.785 186.25 113.035C186.117 113.282 185.938 113.481 185.713 113.632C185.492 113.779 185.248 113.887 184.98 113.956V114.041C185.27 114.055 185.553 114.149 185.828 114.322C186.107 114.492 186.337 114.735 186.519 115.051C186.701 115.366 186.792 115.75 186.792 116.201C186.792 116.647 186.686 117.048 186.476 117.403C186.269 117.755 185.948 118.035 185.513 118.242C185.078 118.447 184.523 118.549 183.847 118.549H180.502ZM181.819 117.42H183.719C184.35 117.42 184.801 117.298 185.074 117.054C185.347 116.809 185.483 116.504 185.483 116.137C185.483 115.862 185.414 115.609 185.275 115.379C185.135 115.149 184.936 114.966 184.678 114.829C184.422 114.693 184.118 114.625 183.766 114.625H181.819V117.42ZM181.819 113.598H183.583C183.878 113.598 184.144 113.541 184.38 113.427C184.618 113.314 184.807 113.154 184.946 112.95C185.088 112.742 185.159 112.498 185.159 112.217C185.159 111.856 185.033 111.554 184.78 111.309C184.527 111.065 184.14 110.943 183.617 110.943H181.819V113.598ZM193.966 109.822H195.287V115.562C195.287 116.173 195.143 116.714 194.856 117.186C194.569 117.654 194.166 118.024 193.646 118.294C193.126 118.561 192.517 118.694 191.818 118.694C191.122 118.694 190.514 118.561 189.994 118.294C189.474 118.024 189.071 117.654 188.784 117.186C188.497 116.714 188.353 116.173 188.353 115.562V109.822H189.67V115.456C189.67 115.85 189.757 116.201 189.93 116.508C190.106 116.815 190.355 117.056 190.676 117.233C190.997 117.406 191.377 117.492 191.818 117.492C192.261 117.492 192.643 117.406 192.964 117.233C193.288 117.056 193.535 116.815 193.706 116.508C193.879 116.201 193.966 115.85 193.966 115.456V109.822ZM196.528 109.822H198.023L200.303 113.789H200.397L202.677 109.822H204.173L201.006 115.123V118.549H199.694V115.123L196.528 109.822Z" fill="white"/>
<path d="M10.5274 120.415C8.90988 120.804 8 121.193 8 121.582C8 124.047 38.2281 125.993 75.4319 125.993C112.737 125.993 142.864 124.047 142.864 121.582C142.965 121.193 71.1858 90.8382 10.5274 120.415Z" fill="#A78227"/>
<path d="M8 121.585C8 124.052 38.2281 126 75.4319 126C112.737 126 142.864 124.052 142.864 121.585C142.864 121.455 129.418 115.611 109.3 111.456C108.794 112.105 108.794 112.884 109.3 113.274C111.22 115.092 122.442 117.429 113.445 120.806C104.346 124.182 78.5659 112.754 71.5902 113.274C64.6145 113.793 33.0721 110.287 44.9005 114.832C56.7289 119.507 38.2281 120.416 23.569 119.767C17.7053 119.507 15.8856 118.728 15.8856 117.689C14.0658 118.468 12.2461 119.247 10.4263 120.156C8.90987 120.806 8 121.195 8 121.585Z" fill="#B79F64"/>
<path d="M105.771 76.6101C101.638 75.1848 96.6491 76.8951 92.3731 80.6722C88.0972 76.8951 83.1086 75.256 78.9752 76.6101C71.92 78.9618 69.8533 89.2241 74.343 99.5576C78.2626 108.537 85.8167 114.595 92.3019 114.452H92.3731H92.4444C99.0008 114.595 106.555 108.537 110.403 99.5576C114.893 89.2241 112.755 78.9618 105.771 76.6101Z" fill="#F5A4B7"/>
<path d="M86.3147 109.319L81.1123 95.066L67.7856 94.5672L67.8569 92.358L82.6801 92.9281L86.5997 103.547L91.8733 92.1442L94.5815 96.7764L100.853 81.5969L107.623 94.2821L122.161 94.5672V96.7764L106.269 96.4201L101.138 86.728L94.9378 101.765L92.0872 96.9189L86.3147 109.319Z" fill="#604A16"/>
<path opacity="0.2" d="M92.3728 114.452C98.9292 114.595 106.555 108.537 110.403 99.558C114.893 89.2245 112.826 78.9623 105.771 76.6105C102.778 75.6128 99.4281 76.1829 96.2211 77.9645C97.7177 85.7325 95.9361 96.9924 80.5427 108.751C84.106 112.386 88.3819 114.524 92.3728 114.452C92.3015 114.452 92.3015 114.452 92.3728 114.452Z" fill="black"/>
<path d="M66.6548 19.4877L65.2056 65.0806L66.9236 65.1352L68.3728 19.5423L66.6548 19.4877Z" fill="#A78227"/>
<path d="M29.1543 32.526C29.1543 32.526 41.7151 25.915 54.9371 32.6582C54.9371 32.6582 66.8369 24.4606 81.5132 34.1126C81.5132 34.1126 93.8096 24.8573 105.18 32.2616C105.18 32.2616 92.8841 0 64.1925 0C42.6407 0 30.8732 23.2706 29.1543 32.526Z" fill="#C8A246"/>
<path d="M29.1543 32.526C29.1543 32.526 41.7151 25.915 54.9371 32.6582C54.9371 32.6582 55.0693 32.526 55.3338 32.3938C52.2927 14.0153 64.1924 0 64.1924 0C42.6407 0 30.8731 23.2706 29.1543 32.526Z" fill="#A78227"/>
<path d="M105.18 32.2615C105.18 32.2615 92.884 0 64.1924 0C64.1924 0 83.4965 8.32982 81.7776 33.8482C83.4965 32.6582 94.7351 25.3861 105.18 32.2615Z" fill="#E9B73D"/>
<path d="M82.0086 61.3406C66.5389 62.9273 53.0526 49.3087 53.0526 49.3087C53.0526 49.3087 39.5662 62.9273 24.0965 61.3406C24.0965 61.3406 19.3366 122.955 53.0526 122.955C86.9008 122.955 82.0086 61.3406 82.0086 61.3406Z" fill="#604A16"/>
<path d="M77.4752 66.3667C64.6499 67.6889 53.4113 56.4502 53.4113 56.4502C53.4113 56.4502 42.1726 67.6889 29.3473 66.3667C29.3473 66.3667 25.3808 117.536 53.4113 117.536C81.4418 117.536 77.4752 66.3667 77.4752 66.3667Z" fill="#EBD2CD"/>
<path d="M33.1222 73.9197C33.1222 73.9197 36.1633 77.3574 44.3609 72.2009C45.6831 71.4075 47.2697 71.5398 49.9141 74.5808C53.0874 78.283 54.4096 77.2252 54.4096 77.2252C54.4096 77.2252 47.4019 82.2495 41.8487 81.4562C36.5599 80.7951 33.1222 73.9197 33.1222 73.9197Z" fill="white"/>
<path d="M74.11 74.1866C74.11 74.1866 71.0689 77.6243 62.8713 72.4678C61.5491 71.6744 59.9625 71.8067 57.3181 74.8477C54.1448 78.5498 52.8226 77.4921 52.8226 77.4921C52.8226 77.4921 59.8303 82.5164 65.3835 81.7231C70.8045 81.062 74.11 74.1866 74.11 74.1866Z" fill="white"/>
<path d="M52.8224 77.4883L53.6157 108.031L54.5412 77.4883H52.8224Z" fill="white"/>
<path d="M47.7987 81.4518C47.7987 81.4518 48.4598 81.4518 49.5176 81.5841C50.5753 81.7163 52.162 81.9807 53.8808 82.5096C54.8064 82.774 55.7319 83.3029 56.6574 83.964C57.0541 84.3607 57.583 84.7573 57.8474 85.2862C58.1118 85.8151 58.2441 86.6084 58.1118 87.2695C57.9796 87.7984 57.8474 88.4595 57.583 89.1206C57.3185 89.6494 56.9219 90.3105 56.5252 90.7072C55.5997 91.6327 54.5419 92.2938 53.4842 92.9549C52.9553 93.2194 52.4264 93.4838 51.8975 93.8805C51.6331 94.0127 51.5009 94.1449 51.3686 94.4093C51.2364 94.5416 51.2364 94.6738 51.2364 94.9382C51.2364 95.3349 51.6331 95.7315 51.8975 96.1282C52.2942 96.5249 52.6908 96.9215 53.0875 97.3182C53.3519 97.4504 53.4842 97.7148 53.7486 97.8471C54.013 97.9793 54.1453 98.2437 54.4097 98.3759C54.8064 98.7726 55.203 99.3015 55.4675 99.6981C56.1286 100.624 56.393 101.681 56.393 102.739C56.393 103.797 55.8641 104.59 55.203 105.119C54.9386 105.384 54.5419 105.516 54.2775 105.78C54.013 105.912 53.7486 106.045 53.4842 106.177C52.9553 106.309 52.5586 106.441 52.2942 106.441C52.0298 106.441 51.8975 106.574 51.8975 106.574C51.8975 106.574 52.0298 106.574 52.2942 106.441C52.5586 106.441 52.9553 106.177 53.4842 106.045C53.7486 105.912 54.013 105.78 54.2775 105.648C54.5419 105.384 54.8064 105.251 55.0708 104.987C55.5997 104.458 55.8641 103.665 55.8641 102.871C55.8641 102.078 55.4675 101.153 54.9386 100.359C54.6741 99.9626 54.2775 99.5659 53.8808 99.3015C53.7486 99.1692 53.4842 98.9048 53.2197 98.7726C52.9553 98.6404 52.8231 98.3759 52.5586 98.2437C52.162 97.847 51.6331 97.4504 51.2364 97.0537C50.8398 96.6571 50.3109 96.1282 50.1787 95.2027C50.1787 94.806 50.3109 94.2771 50.5753 94.0127C50.8398 93.7482 51.1042 93.4838 51.3686 93.2194C51.8975 92.8227 52.4264 92.5583 52.9553 92.2938C54.013 91.7649 55.0708 91.1039 55.8641 90.3105C56.2608 89.9139 56.5252 89.5172 56.7896 88.9883C57.0541 88.4595 57.1863 88.0628 57.3185 87.4017C57.583 86.4762 57.0541 85.5506 56.393 84.8895C55.5997 84.2284 54.8063 83.8318 54.013 83.4351C52.2942 82.774 50.8398 82.3774 49.782 82.1129C48.4598 81.584 47.7987 81.4518 47.7987 81.4518Z" fill="white"/>
<path d="M59.038 81.455C59.038 81.455 58.3769 81.5873 57.4514 81.8517C56.3936 82.1161 54.9392 82.5128 53.2203 83.1739C52.427 83.5705 51.5015 83.9672 50.8404 84.6283C50.0471 85.2894 49.6504 86.2149 49.9149 87.1405C50.0471 87.8016 50.1793 88.1982 50.4437 88.7271C50.7082 89.256 50.9726 89.6526 51.3693 90.0493C52.1626 90.8426 53.2203 91.5037 54.2781 92.0326C54.807 92.297 55.3359 92.5615 55.8647 92.9581C56.1292 93.2226 56.3936 93.3548 56.658 93.7514C56.9225 94.0159 57.0547 94.5448 57.0547 94.9414C56.9225 95.867 56.3936 96.2636 55.9969 96.7925C55.6003 97.3214 55.0714 97.5858 54.6747 97.9825C54.4103 98.1147 54.2781 98.3791 54.0136 98.5113C53.7492 98.6436 53.617 98.908 53.3525 99.0402C52.9559 99.4369 52.6915 99.7013 52.2948 100.098C51.7659 100.891 51.3693 101.817 51.3693 102.61C51.3693 103.403 51.7659 104.197 52.1626 104.726C52.427 104.99 52.6915 105.122 52.9559 105.387C53.2203 105.519 53.4848 105.651 53.7492 105.783C54.2781 106.048 54.6748 106.18 54.9392 106.18C55.2036 106.312 55.3358 106.312 55.3358 106.312C55.3358 106.312 55.2036 106.312 54.9392 106.18C54.6748 106.18 54.2781 106.048 53.7492 105.916C53.4848 105.783 53.2203 105.651 52.9559 105.519C52.6915 105.387 52.2948 105.122 52.0304 104.858C51.5015 104.329 50.9726 103.536 50.8404 102.478C50.7082 101.42 51.1048 100.362 51.7659 99.4369C52.0304 98.908 52.427 98.5113 52.8237 98.1147C53.0881 97.8502 53.2203 97.718 53.4848 97.5858C53.7492 97.4536 53.8814 97.1891 54.1459 97.0569C54.5425 96.6603 54.9392 96.2636 55.3358 95.8669C55.7325 95.4703 55.9969 94.9414 55.9969 94.677C55.9969 94.5448 55.9969 94.4125 55.8647 94.1481C55.7325 94.0159 55.4681 93.7514 55.3358 93.6192C54.9392 93.3548 54.2781 92.9581 53.7492 92.6937C52.6915 92.0326 51.5015 91.3715 50.7082 90.446C50.3115 89.9171 49.9149 89.3882 49.6504 88.8593C49.386 88.3304 49.1215 87.5371 49.1215 87.0083C48.9893 86.3472 49.1215 85.6861 49.386 85.025C49.6504 84.4961 50.0471 83.9672 50.5759 83.7028C51.5015 83.0417 52.427 82.645 53.3525 82.2484C55.0714 81.5873 56.658 81.455 57.7158 81.3228C58.3769 81.455 59.038 81.455 59.038 81.455Z" fill="white"/>
<path d="M99.2784 49V37.3636H103.54C104.366 37.3636 105.049 37.5 105.591 37.7727C106.133 38.0417 106.538 38.4072 106.807 38.8693C107.076 39.3277 107.21 39.8447 107.21 40.4205C107.21 40.9053 107.121 41.3144 106.943 41.6477C106.765 41.9773 106.527 42.2424 106.227 42.4432C105.932 42.6402 105.606 42.7841 105.25 42.875V42.9886C105.636 43.0076 106.013 43.1326 106.381 43.3636C106.752 43.5909 107.059 43.9148 107.301 44.3352C107.544 44.7557 107.665 45.267 107.665 45.8693C107.665 46.464 107.525 46.9981 107.244 47.4716C106.968 47.9413 106.54 48.3144 105.96 48.5909C105.381 48.8636 104.64 49 103.739 49H99.2784ZM101.034 47.4943H103.568C104.409 47.4943 105.011 47.3314 105.375 47.0057C105.739 46.6799 105.92 46.2727 105.92 45.7841C105.92 45.4167 105.828 45.0795 105.642 44.7727C105.456 44.4659 105.191 44.2216 104.847 44.0398C104.506 43.858 104.1 43.767 103.631 43.767H101.034V47.4943ZM101.034 42.3977H103.386C103.78 42.3977 104.134 42.322 104.449 42.1705C104.767 42.0189 105.019 41.8068 105.205 41.5341C105.394 41.2576 105.489 40.9318 105.489 40.5568C105.489 40.0758 105.32 39.6723 104.983 39.3466C104.646 39.0208 104.129 38.858 103.432 38.858H101.034V42.3977ZM115.139 45.3807V40.2727H116.844V49H115.173V47.4886H115.082C114.882 47.9545 114.56 48.3428 114.116 48.6534C113.677 48.9602 113.13 49.1136 112.474 49.1136C111.914 49.1136 111.418 48.9905 110.986 48.7443C110.558 48.4943 110.221 48.125 109.974 47.6364C109.732 47.1477 109.611 46.5436 109.611 45.8239V40.2727H111.31V45.6193C111.31 46.214 111.474 46.6875 111.804 47.0398C112.134 47.392 112.562 47.5682 113.088 47.5682C113.406 47.5682 113.723 47.4886 114.037 47.3295C114.355 47.1705 114.618 46.9299 114.827 46.608C115.039 46.286 115.143 45.8769 115.139 45.3807ZM120.2 52.2727C119.946 52.2727 119.715 52.2519 119.507 52.2102C119.299 52.1723 119.143 52.1307 119.041 52.0852L119.45 50.6932C119.761 50.7765 120.037 50.8125 120.28 50.8011C120.522 50.7898 120.736 50.6989 120.922 50.5284C121.111 50.358 121.278 50.0795 121.422 49.6932L121.632 49.1136L118.439 40.2727H120.257L122.467 47.0455H122.558L124.768 40.2727H126.592L122.996 50.1648C122.829 50.6193 122.617 51.0038 122.359 51.3182C122.102 51.6364 121.795 51.875 121.439 52.0341C121.083 52.1932 120.67 52.2727 120.2 52.2727ZM133.497 52.2727C133.243 52.2727 133.012 52.2519 132.804 52.2102C132.596 52.1723 132.44 52.1307 132.338 52.0852L132.747 50.6932C133.058 50.7765 133.334 50.8125 133.577 50.8011C133.819 50.7898 134.033 50.6989 134.219 50.5284C134.408 50.358 134.575 50.0795 134.719 49.6932L134.929 49.1136L131.736 40.2727H133.554L135.764 47.0455H135.855L138.065 40.2727H139.889L136.293 50.1648C136.126 50.6193 135.914 51.0038 135.656 51.3182C135.399 51.6364 135.092 51.875 134.736 52.0341C134.38 52.1932 133.967 52.2727 133.497 52.2727ZM144.865 49.1761C144.047 49.1761 143.333 48.9886 142.723 48.6136C142.113 48.2386 141.64 47.714 141.303 47.0398C140.965 46.3655 140.797 45.5777 140.797 44.6761C140.797 43.7708 140.965 42.9792 141.303 42.3011C141.64 41.6231 142.113 41.0966 142.723 40.7216C143.333 40.3466 144.047 40.1591 144.865 40.1591C145.683 40.1591 146.397 40.3466 147.007 40.7216C147.617 41.0966 148.09 41.6231 148.428 42.3011C148.765 42.9792 148.933 43.7708 148.933 44.6761C148.933 45.5777 148.765 46.3655 148.428 47.0398C148.09 47.714 147.617 48.2386 147.007 48.6136C146.397 48.9886 145.683 49.1761 144.865 49.1761ZM144.871 47.75C145.401 47.75 145.84 47.6098 146.189 47.3295C146.537 47.0492 146.795 46.6761 146.962 46.2102C147.132 45.7443 147.217 45.2311 147.217 44.6705C147.217 44.1136 147.132 43.6023 146.962 43.1364C146.795 42.6667 146.537 42.2898 146.189 42.0057C145.84 41.7216 145.401 41.5795 144.871 41.5795C144.337 41.5795 143.893 41.7216 143.541 42.0057C143.193 42.2898 142.933 42.6667 142.763 43.1364C142.596 43.6023 142.513 44.1136 142.513 44.6705C142.513 45.2311 142.596 45.7443 142.763 46.2102C142.933 46.6761 143.193 47.0492 143.541 47.3295C143.893 47.6098 144.337 47.75 144.871 47.75ZM156.358 45.3807V40.2727H158.062V49H156.392V47.4886H156.301C156.1 47.9545 155.778 48.3428 155.335 48.6534C154.896 48.9602 154.348 49.1136 153.693 49.1136C153.133 49.1136 152.636 48.9905 152.205 48.7443C151.777 48.4943 151.439 48.125 151.193 47.6364C150.951 47.1477 150.83 46.5436 150.83 45.8239V40.2727H152.528V45.6193C152.528 46.214 152.693 46.6875 153.023 47.0398C153.352 47.392 153.78 47.5682 154.307 47.5682C154.625 47.5682 154.941 47.4886 155.256 47.3295C155.574 47.1705 155.837 46.9299 156.045 46.608C156.258 46.286 156.362 45.8769 156.358 45.3807ZM160.345 49V40.2727H161.987V41.6591H162.078C162.237 41.1894 162.518 40.8201 162.919 40.5511C163.324 40.2784 163.783 40.142 164.294 40.142C164.4 40.142 164.525 40.1458 164.669 40.1534C164.817 40.161 164.932 40.1705 165.016 40.1818V41.8068C164.947 41.7879 164.826 41.767 164.652 41.7443C164.478 41.7178 164.304 41.7045 164.129 41.7045C163.728 41.7045 163.37 41.7898 163.055 41.9602C162.745 42.1269 162.499 42.3598 162.317 42.6591C162.135 42.9545 162.044 43.2917 162.044 43.6705V49H160.345ZM170.385 41V39.9091C170.385 39.5871 170.446 39.2481 170.567 38.892C170.688 38.536 170.857 38.1951 171.072 37.8693C171.288 37.5436 171.542 37.2652 171.834 37.0341L172.675 37.6364C172.444 37.9735 172.247 38.3258 172.084 38.6932C171.921 39.0606 171.839 39.4602 171.839 39.892V41H170.385ZM174.278 37.3636H176.409L180.114 46.4091H180.25L183.955 37.3636H186.085V49H184.415V40.5795H184.307L180.875 48.983H179.489L176.057 40.5739H175.949V49H174.278V37.3636ZM192.263 49.1761C191.403 49.1761 190.662 48.9924 190.041 48.625C189.424 48.2538 188.946 47.733 188.609 47.0625C188.276 46.3883 188.109 45.5985 188.109 44.6932C188.109 43.7992 188.276 43.0114 188.609 42.3295C188.946 41.6477 189.416 41.1155 190.018 40.733C190.625 40.3504 191.333 40.1591 192.143 40.1591C192.636 40.1591 193.113 40.2405 193.575 40.4034C194.037 40.5663 194.452 40.822 194.82 41.1705C195.187 41.5189 195.477 41.9716 195.689 42.5284C195.901 43.0814 196.007 43.7538 196.007 44.5455V45.1477H189.07V43.875H194.342C194.342 43.428 194.251 43.0322 194.07 42.6875C193.888 42.339 193.632 42.0644 193.303 41.8636C192.977 41.6629 192.594 41.5625 192.155 41.5625C191.678 41.5625 191.261 41.6799 190.905 41.9148C190.553 42.1458 190.28 42.4489 190.087 42.8239C189.897 43.1951 189.803 43.5985 189.803 44.0341V45.0284C189.803 45.6117 189.905 46.108 190.109 46.517C190.318 46.9261 190.607 47.2386 190.979 47.4545C191.35 47.6667 191.784 47.7727 192.28 47.7727C192.602 47.7727 192.895 47.7273 193.161 47.6364C193.426 47.5417 193.655 47.4015 193.848 47.2159C194.041 47.0303 194.189 46.8011 194.291 46.5284L195.899 46.8182C195.77 47.2917 195.539 47.7064 195.206 48.0625C194.876 48.4148 194.462 48.6894 193.962 48.8864C193.465 49.0795 192.899 49.1761 192.263 49.1761ZM201.159 49.1705C200.455 49.1705 199.826 48.9905 199.273 48.6307C198.723 48.267 198.292 47.75 197.977 47.0795C197.667 46.4053 197.511 45.5966 197.511 44.6534C197.511 43.7102 197.669 42.9034 197.983 42.233C198.301 41.5625 198.737 41.0492 199.29 40.6932C199.843 40.3371 200.47 40.1591 201.17 40.1591C201.712 40.1591 202.148 40.25 202.477 40.4318C202.811 40.6098 203.068 40.8182 203.25 41.0568C203.436 41.2955 203.58 41.5057 203.682 41.6875H203.784V37.3636H205.483V49H203.824V47.642H203.682C203.58 47.8277 203.432 48.0398 203.239 48.2784C203.049 48.517 202.788 48.7254 202.455 48.9034C202.121 49.0814 201.689 49.1705 201.159 49.1705ZM201.534 47.7216C202.023 47.7216 202.436 47.5928 202.773 47.3352C203.114 47.0739 203.371 46.7121 203.545 46.25C203.723 45.7879 203.812 45.25 203.812 44.6364C203.812 44.0303 203.725 43.5 203.551 43.0455C203.377 42.5909 203.121 42.2367 202.784 41.983C202.447 41.7292 202.03 41.6023 201.534 41.6023C201.023 41.6023 200.597 41.7348 200.256 42C199.915 42.2652 199.657 42.6269 199.483 43.0852C199.313 43.5436 199.227 44.0606 199.227 44.6364C199.227 45.2197 199.314 45.7443 199.489 46.2102C199.663 46.6761 199.92 47.0455 200.261 47.3182C200.606 47.5871 201.03 47.7216 201.534 47.7216ZM207.908 49V40.2727H209.607V49H207.908ZM208.766 38.9261C208.47 38.9261 208.216 38.8277 208.004 38.6307C207.796 38.4299 207.692 38.1913 207.692 37.9148C207.692 37.6345 207.796 37.3958 208.004 37.1989C208.216 36.9981 208.47 36.8977 208.766 36.8977C209.061 36.8977 209.313 36.9981 209.521 37.1989C209.733 37.3958 209.839 37.6345 209.839 37.9148C209.839 38.1913 209.733 38.4299 209.521 38.6307C209.313 38.8277 209.061 38.9261 208.766 38.9261ZM215.568 49.1761C214.723 49.1761 213.996 48.9848 213.386 48.6023C212.78 48.2159 212.314 47.6837 211.989 47.0057C211.663 46.3277 211.5 45.5511 211.5 44.6761C211.5 43.7898 211.667 43.0076 212 42.3295C212.333 41.6477 212.803 41.1155 213.409 40.733C214.015 40.3504 214.729 40.1591 215.551 40.1591C216.214 40.1591 216.805 40.2822 217.324 40.5284C217.843 40.7708 218.261 41.1117 218.58 41.5511C218.902 41.9905 219.093 42.5038 219.153 43.0909H217.5C217.409 42.6818 217.201 42.3295 216.875 42.0341C216.553 41.7386 216.121 41.5909 215.58 41.5909C215.106 41.5909 214.691 41.7159 214.335 41.9659C213.983 42.2121 213.708 42.5644 213.511 43.0227C213.314 43.4773 213.216 44.0152 213.216 44.6364C213.216 45.2727 213.313 45.822 213.506 46.2841C213.699 46.7462 213.972 47.1042 214.324 47.358C214.68 47.6117 215.098 47.7386 215.58 47.7386C215.902 47.7386 216.193 47.6799 216.455 47.5625C216.72 47.4413 216.941 47.2689 217.119 47.0455C217.301 46.822 217.428 46.553 217.5 46.2386H219.153C219.093 46.803 218.909 47.3068 218.602 47.75C218.295 48.1932 217.884 48.5417 217.369 48.7955C216.858 49.0492 216.258 49.1761 215.568 49.1761ZM223.51 49.1932C222.957 49.1932 222.457 49.0909 222.01 48.8864C221.563 48.678 221.209 48.3769 220.947 47.983C220.69 47.589 220.561 47.1061 220.561 46.5341C220.561 46.0417 220.656 45.6364 220.845 45.3182C221.035 45 221.29 44.7481 221.612 44.5625C221.934 44.3769 222.294 44.2367 222.692 44.142C223.089 44.0473 223.495 43.9754 223.908 43.9261C224.43 43.8655 224.855 43.8163 225.18 43.7784C225.506 43.7367 225.743 43.6705 225.891 43.5795C226.038 43.4886 226.112 43.3409 226.112 43.1364V43.0966C226.112 42.6004 225.972 42.2159 225.692 41.9432C225.415 41.6705 225.002 41.5341 224.453 41.5341C223.881 41.5341 223.43 41.661 223.101 41.9148C222.775 42.1648 222.55 42.4432 222.425 42.75L220.828 42.3864C221.018 41.8561 221.294 41.428 221.658 41.1023C222.025 40.7727 222.447 40.5341 222.925 40.3864C223.402 40.2348 223.904 40.1591 224.43 40.1591C224.779 40.1591 225.148 40.2008 225.538 40.2841C225.932 40.3636 226.3 40.5114 226.641 40.7273C226.985 40.9432 227.268 41.2519 227.487 41.6534C227.707 42.0511 227.817 42.5682 227.817 43.2045V49H226.158V47.8068H226.089C225.98 48.0265 225.815 48.2424 225.595 48.4545C225.375 48.6667 225.093 48.8428 224.749 48.983C224.404 49.1231 223.991 49.1932 223.51 49.1932ZM223.879 47.8295C224.349 47.8295 224.75 47.7367 225.084 47.5511C225.421 47.3655 225.677 47.1231 225.851 46.8239C226.029 46.5208 226.118 46.197 226.118 45.8523V44.7273C226.057 44.7879 225.94 44.8447 225.766 44.8977C225.595 44.947 225.4 44.9905 225.18 45.0284C224.961 45.0625 224.747 45.0947 224.538 45.125C224.33 45.1515 224.156 45.1742 224.016 45.1932C223.686 45.2348 223.385 45.3049 223.112 45.4034C222.843 45.5019 222.627 45.6439 222.464 45.8295C222.305 46.0114 222.226 46.2538 222.226 46.5568C222.226 46.9773 222.381 47.2955 222.692 47.5114C223.002 47.7235 223.398 47.8295 223.879 47.8295ZM231.778 37.3636V49H230.08V37.3636H231.778ZM240.19 37.3636V49H238.435V37.3636H240.19ZM244.31 43.8182V49H242.611V40.2727H244.241V41.6932H244.349C244.55 41.2311 244.865 40.8598 245.293 40.5795C245.724 40.2992 246.268 40.1591 246.923 40.1591C247.518 40.1591 248.039 40.2841 248.486 40.5341C248.933 40.7803 249.279 41.1477 249.526 41.6364C249.772 42.125 249.895 42.7292 249.895 43.4489V49H248.196V43.6534C248.196 43.0208 248.031 42.5265 247.702 42.1705C247.372 41.8106 246.92 41.6307 246.344 41.6307C245.95 41.6307 245.599 41.7159 245.293 41.8864C244.99 42.0568 244.749 42.3068 244.571 42.6364C244.397 42.9621 244.31 43.3561 244.31 43.8182ZM258.713 42.4034L257.173 42.6761C257.109 42.4792 257.007 42.2917 256.866 42.1136C256.73 41.9356 256.545 41.7898 256.31 41.6761C256.075 41.5625 255.781 41.5057 255.429 41.5057C254.948 41.5057 254.546 41.6136 254.224 41.8295C253.902 42.0417 253.741 42.3163 253.741 42.6534C253.741 42.9451 253.849 43.1799 254.065 43.358C254.281 43.536 254.63 43.6818 255.111 43.7955L256.497 44.1136C257.3 44.2992 257.899 44.5852 258.293 44.9716C258.687 45.358 258.884 45.8598 258.884 46.4773C258.884 47 258.732 47.4659 258.429 47.875C258.13 48.2803 257.711 48.5985 257.173 48.8295C256.639 49.0606 256.02 49.1761 255.315 49.1761C254.338 49.1761 253.541 48.9678 252.923 48.5511C252.306 48.1307 251.927 47.5341 251.787 46.7614L253.429 46.5114C253.531 46.9394 253.741 47.2633 254.06 47.483C254.378 47.6989 254.793 47.8068 255.304 47.8068C255.861 47.8068 256.306 47.6913 256.639 47.4602C256.973 47.2254 257.139 46.9394 257.139 46.6023C257.139 46.3295 257.037 46.1004 256.832 45.9148C256.632 45.7292 256.323 45.589 255.906 45.4943L254.429 45.1705C253.615 44.9848 253.012 44.6894 252.622 44.2841C252.236 43.8788 252.043 43.3655 252.043 42.7443C252.043 42.2292 252.187 41.7784 252.474 41.392C252.762 41.0057 253.16 40.7045 253.668 40.4886C254.175 40.2689 254.757 40.1591 255.412 40.1591C256.355 40.1591 257.098 40.3636 257.639 40.7727C258.181 41.178 258.539 41.7216 258.713 42.4034ZM266.28 45.3807V40.2727H267.984V49H266.314V47.4886H266.223C266.022 47.9545 265.7 48.3428 265.257 48.6534C264.818 48.9602 264.27 49.1136 263.615 49.1136C263.054 49.1136 262.558 48.9905 262.126 48.7443C261.698 48.4943 261.361 48.125 261.115 47.6364C260.873 47.1477 260.751 46.5436 260.751 45.8239V40.2727H262.45V45.6193C262.45 46.214 262.615 46.6875 262.945 47.0398C263.274 47.392 263.702 47.5682 264.229 47.5682C264.547 47.5682 264.863 47.4886 265.178 47.3295C265.496 47.1705 265.759 46.9299 265.967 46.608C266.179 46.286 266.284 45.8769 266.28 45.3807ZM270.267 49V40.2727H271.909V41.6591H272C272.159 41.1894 272.439 40.8201 272.841 40.5511C273.246 40.2784 273.705 40.142 274.216 40.142C274.322 40.142 274.447 40.1458 274.591 40.1534C274.739 40.161 274.854 40.1705 274.938 40.1818V41.8068C274.869 41.7879 274.748 41.767 274.574 41.7443C274.4 41.7178 274.225 41.7045 274.051 41.7045C273.65 41.7045 273.292 41.7898 272.977 41.9602C272.667 42.1269 272.42 42.3598 272.239 42.6591C272.057 42.9545 271.966 43.2917 271.966 43.6705V49H270.267ZM278.869 49.1932C278.316 49.1932 277.816 49.0909 277.369 48.8864C276.922 48.678 276.568 48.3769 276.307 47.983C276.049 47.589 275.92 47.1061 275.92 46.5341C275.92 46.0417 276.015 45.6364 276.205 45.3182C276.394 45 276.65 44.7481 276.972 44.5625C277.294 44.3769 277.653 44.2367 278.051 44.142C278.449 44.0473 278.854 43.9754 279.267 43.9261C279.79 43.8655 280.214 43.8163 280.54 43.7784C280.866 43.7367 281.102 43.6705 281.25 43.5795C281.398 43.4886 281.472 43.3409 281.472 43.1364V43.0966C281.472 42.6004 281.331 42.2159 281.051 41.9432C280.775 41.6705 280.362 41.5341 279.812 41.5341C279.241 41.5341 278.79 41.661 278.46 41.9148C278.134 42.1648 277.909 42.4432 277.784 42.75L276.188 42.3864C276.377 41.8561 276.653 41.428 277.017 41.1023C277.384 40.7727 277.807 40.5341 278.284 40.3864C278.761 40.2348 279.263 40.1591 279.79 40.1591C280.138 40.1591 280.508 40.2008 280.898 40.2841C281.292 40.3636 281.659 40.5114 282 40.7273C282.345 40.9432 282.627 41.2519 282.847 41.6534C283.066 42.0511 283.176 42.5682 283.176 43.2045V49H281.517V47.8068H281.449C281.339 48.0265 281.174 48.2424 280.955 48.4545C280.735 48.6667 280.453 48.8428 280.108 48.983C279.763 49.1231 279.35 49.1932 278.869 49.1932ZM279.239 47.8295C279.708 47.8295 280.11 47.7367 280.443 47.5511C280.78 47.3655 281.036 47.1231 281.21 46.8239C281.388 46.5208 281.477 46.197 281.477 45.8523V44.7273C281.417 44.7879 281.299 44.8447 281.125 44.8977C280.955 44.947 280.759 44.9905 280.54 45.0284C280.32 45.0625 280.106 45.0947 279.898 45.125C279.689 45.1515 279.515 45.1742 279.375 45.1932C279.045 45.2348 278.744 45.3049 278.472 45.4034C278.203 45.5019 277.987 45.6439 277.824 45.8295C277.665 46.0114 277.585 46.2538 277.585 46.5568C277.585 46.9773 277.741 47.2955 278.051 47.5114C278.362 47.7235 278.758 47.8295 279.239 47.8295ZM287.138 43.8182V49H285.439V40.2727H287.07V41.6932H287.178C287.378 41.2311 287.693 40.8598 288.121 40.5795C288.553 40.2992 289.096 40.1591 289.751 40.1591C290.346 40.1591 290.867 40.2841 291.314 40.5341C291.761 40.7803 292.107 41.1477 292.354 41.6364C292.6 42.125 292.723 42.7292 292.723 43.4489V49H291.024V43.6534C291.024 43.0208 290.859 42.5265 290.53 42.1705C290.2 41.8106 289.748 41.6307 289.172 41.6307C288.778 41.6307 288.428 41.7159 288.121 41.8864C287.818 42.0568 287.577 42.3068 287.399 42.6364C287.225 42.9621 287.138 43.3561 287.138 43.8182ZM298.678 49.1761C297.833 49.1761 297.106 48.9848 296.496 48.6023C295.89 48.2159 295.424 47.6837 295.098 47.0057C294.772 46.3277 294.609 45.5511 294.609 44.6761C294.609 43.7898 294.776 43.0076 295.109 42.3295C295.443 41.6477 295.912 41.1155 296.518 40.733C297.125 40.3504 297.839 40.1591 298.661 40.1591C299.323 40.1591 299.914 40.2822 300.433 40.5284C300.952 40.7708 301.371 41.1117 301.689 41.5511C302.011 41.9905 302.202 42.5038 302.263 43.0909H300.609C300.518 42.6818 300.31 42.3295 299.984 42.0341C299.662 41.7386 299.231 41.5909 298.689 41.5909C298.215 41.5909 297.801 41.7159 297.445 41.9659C297.092 42.2121 296.818 42.5644 296.621 43.0227C296.424 43.4773 296.325 44.0152 296.325 44.6364C296.325 45.2727 296.422 45.822 296.615 46.2841C296.808 46.7462 297.081 47.1042 297.433 47.358C297.789 47.6117 298.208 47.7386 298.689 47.7386C299.011 47.7386 299.303 47.6799 299.564 47.5625C299.829 47.4413 300.051 47.2689 300.229 47.0455C300.411 46.822 300.537 46.553 300.609 46.2386H302.263C302.202 46.803 302.018 47.3068 301.712 47.75C301.405 48.1932 300.994 48.5417 300.479 48.7955C299.967 49.0492 299.367 49.1761 298.678 49.1761ZM307.841 49.1761C306.981 49.1761 306.241 48.9924 305.619 48.625C305.002 48.2538 304.525 47.733 304.188 47.0625C303.854 46.3883 303.688 45.5985 303.688 44.6932C303.688 43.7992 303.854 43.0114 304.188 42.3295C304.525 41.6477 304.994 41.1155 305.597 40.733C306.203 40.3504 306.911 40.1591 307.722 40.1591C308.214 40.1591 308.691 40.2405 309.153 40.4034C309.616 40.5663 310.03 40.822 310.398 41.1705C310.765 41.5189 311.055 41.9716 311.267 42.5284C311.479 43.0814 311.585 43.7538 311.585 44.5455V45.1477H304.648V43.875H309.92C309.92 43.428 309.83 43.0322 309.648 42.6875C309.466 42.339 309.21 42.0644 308.881 41.8636C308.555 41.6629 308.172 41.5625 307.733 41.5625C307.256 41.5625 306.839 41.6799 306.483 41.9148C306.131 42.1458 305.858 42.4489 305.665 42.8239C305.475 43.1951 305.381 43.5985 305.381 44.0341V45.0284C305.381 45.6117 305.483 46.108 305.688 46.517C305.896 46.9261 306.186 47.2386 306.557 47.4545C306.928 47.6667 307.362 47.7727 307.858 47.7727C308.18 47.7727 308.473 47.7273 308.739 47.6364C309.004 47.5417 309.233 47.4015 309.426 47.2159C309.619 47.0303 309.767 46.8011 309.869 46.5284L311.477 46.8182C311.348 47.2917 311.117 47.7064 310.784 48.0625C310.455 48.4148 310.04 48.6894 309.54 48.8864C309.044 49.0795 308.477 49.1761 307.841 49.1761ZM314.93 37.3636V38.4545C314.93 38.7765 314.87 39.1155 314.749 39.4716C314.631 39.8239 314.464 40.1629 314.249 40.4886C314.033 40.8144 313.779 41.0947 313.487 41.3295L312.646 40.7273C312.87 40.4015 313.063 40.0549 313.226 39.6875C313.393 39.3201 313.476 38.9148 313.476 38.4716V37.3636H314.93ZM103.295 64.2727V65.6364H98.3636V64.2727H103.295ZM99.7159 73V63.2614C99.7159 62.7159 99.8352 62.2633 100.074 61.9034C100.313 61.5398 100.629 61.2689 101.023 61.0909C101.417 60.9091 101.845 60.8182 102.307 60.8182C102.648 60.8182 102.939 60.8466 103.182 60.9034C103.424 60.9564 103.604 61.0057 103.722 61.0511L103.324 62.4261C103.244 62.4034 103.142 62.3769 103.017 62.3466C102.892 62.3125 102.741 62.2955 102.562 62.2955C102.15 62.2955 101.854 62.3977 101.676 62.6023C101.502 62.8068 101.415 63.1023 101.415 63.4886V73H99.7159ZM105.048 73V64.2727H106.69V65.6591H106.781C106.94 65.1894 107.221 64.8201 107.622 64.5511C108.027 64.2784 108.486 64.142 108.997 64.142C109.103 64.142 109.228 64.1458 109.372 64.1534C109.52 64.161 109.635 64.1705 109.719 64.1818V65.8068C109.651 65.7879 109.529 65.767 109.355 65.7443C109.181 65.7178 109.007 65.7045 108.832 65.7045C108.431 65.7045 108.073 65.7898 107.759 65.9602C107.448 66.1269 107.202 66.3598 107.02 66.6591C106.838 66.9545 106.747 67.2917 106.747 67.6705V73H105.048ZM114.553 73.1761C113.734 73.1761 113.02 72.9886 112.411 72.6136C111.801 72.2386 111.327 71.714 110.99 71.0398C110.653 70.3655 110.484 69.5777 110.484 68.6761C110.484 67.7708 110.653 66.9792 110.99 66.3011C111.327 65.6231 111.801 65.0966 112.411 64.7216C113.02 64.3466 113.734 64.1591 114.553 64.1591C115.371 64.1591 116.085 64.3466 116.695 64.7216C117.304 65.0966 117.778 65.6231 118.115 66.3011C118.452 66.9792 118.621 67.7708 118.621 68.6761C118.621 69.5777 118.452 70.3655 118.115 71.0398C117.778 71.714 117.304 72.2386 116.695 72.6136C116.085 72.9886 115.371 73.1761 114.553 73.1761ZM114.558 71.75C115.089 71.75 115.528 71.6098 115.876 71.3295C116.225 71.0492 116.482 70.6761 116.649 70.2102C116.82 69.7443 116.905 69.2311 116.905 68.6705C116.905 68.1136 116.82 67.6023 116.649 67.1364C116.482 66.6667 116.225 66.2898 115.876 66.0057C115.528 65.7216 115.089 65.5795 114.558 65.5795C114.024 65.5795 113.581 65.7216 113.229 66.0057C112.88 66.2898 112.621 66.6667 112.45 67.1364C112.284 67.6023 112.2 68.1136 112.2 68.6705C112.2 69.2311 112.284 69.7443 112.45 70.2102C112.621 70.6761 112.88 71.0492 113.229 71.3295C113.581 71.6098 114.024 71.75 114.558 71.75ZM120.517 73V64.2727H122.148V65.6932H122.256C122.438 65.2121 122.735 64.8371 123.148 64.5682C123.561 64.2955 124.055 64.1591 124.631 64.1591C125.214 64.1591 125.703 64.2955 126.097 64.5682C126.494 64.8409 126.788 65.2159 126.977 65.6932H127.068C127.277 65.2273 127.608 64.8561 128.062 64.5795C128.517 64.2992 129.059 64.1591 129.688 64.1591C130.479 64.1591 131.125 64.4072 131.625 64.9034C132.129 65.3996 132.381 66.1477 132.381 67.1477V73H130.682V67.3068C130.682 66.7159 130.521 66.2879 130.199 66.0227C129.877 65.7576 129.492 65.625 129.045 65.625C128.492 65.625 128.062 65.7955 127.756 66.1364C127.449 66.4735 127.295 66.9072 127.295 67.4375V73H125.602V67.1989C125.602 66.7254 125.455 66.3447 125.159 66.0568C124.864 65.7689 124.479 65.625 124.006 65.625C123.684 65.625 123.386 65.7102 123.114 65.8807C122.845 66.0473 122.627 66.2803 122.46 66.5795C122.297 66.8788 122.216 67.2254 122.216 67.6193V73H120.517ZM141.222 61.3636V73H138.761V61.3636H141.222ZM152.979 61.3636V73H150.854L145.791 65.6761H145.706V73H143.246V61.3636H145.405L150.428 68.6818H150.53V61.3636H152.979ZM161.324 64.7102C161.278 64.2519 161.083 63.8958 160.739 63.642C160.394 63.3883 159.926 63.2614 159.335 63.2614C158.934 63.2614 158.595 63.3182 158.318 63.4318C158.042 63.5417 157.83 63.6951 157.682 63.892C157.538 64.089 157.466 64.3125 157.466 64.5625C157.458 64.7708 157.502 64.9527 157.597 65.108C157.695 65.2633 157.83 65.3977 158 65.5114C158.17 65.6212 158.367 65.7178 158.591 65.8011C158.814 65.8807 159.053 65.9489 159.307 66.0057L160.352 66.2557C160.86 66.3693 161.326 66.5208 161.75 66.7102C162.174 66.8996 162.542 67.1326 162.852 67.4091C163.163 67.6856 163.403 68.0114 163.574 68.3864C163.748 68.7614 163.837 69.1913 163.841 69.6761C163.837 70.3883 163.655 71.0057 163.295 71.5284C162.939 72.0473 162.424 72.4508 161.75 72.7386C161.08 73.0227 160.271 73.1648 159.324 73.1648C158.384 73.1648 157.566 73.0208 156.869 72.733C156.176 72.4451 155.634 72.0189 155.244 71.4545C154.858 70.8864 154.655 70.1837 154.636 69.3466H157.017C157.044 69.7367 157.155 70.0625 157.352 70.3239C157.553 70.5814 157.82 70.7765 158.153 70.9091C158.491 71.0379 158.871 71.1023 159.295 71.1023C159.712 71.1023 160.074 71.0417 160.381 70.9205C160.691 70.7992 160.932 70.6307 161.102 70.4148C161.273 70.1989 161.358 69.9508 161.358 69.6705C161.358 69.4091 161.28 69.1894 161.125 69.0114C160.973 68.8333 160.75 68.6818 160.455 68.5568C160.163 68.4318 159.805 68.3182 159.381 68.2159L158.114 67.8977C157.133 67.6591 156.358 67.286 155.79 66.7784C155.222 66.2708 154.939 65.5871 154.943 64.7273C154.939 64.0227 155.127 63.4072 155.506 62.8807C155.888 62.3542 156.413 61.9432 157.08 61.6477C157.746 61.3523 158.504 61.2045 159.352 61.2045C160.216 61.2045 160.97 61.3523 161.614 61.6477C162.261 61.9432 162.765 62.3542 163.125 62.8807C163.485 63.4072 163.67 64.017 163.682 64.7102H161.324ZM172.683 61.3636H175.143V68.9205C175.143 69.7689 174.941 70.5114 174.536 71.1477C174.134 71.7841 173.571 72.2803 172.848 72.6364C172.125 72.9886 171.282 73.1648 170.32 73.1648C169.354 73.1648 168.509 72.9886 167.786 72.6364C167.062 72.2803 166.5 71.7841 166.098 71.1477C165.696 70.5114 165.496 69.7689 165.496 68.9205V61.3636H167.956V68.7102C167.956 69.1534 168.053 69.5473 168.246 69.892C168.443 70.2367 168.719 70.5076 169.075 70.7045C169.431 70.9015 169.846 71 170.32 71C170.797 71 171.212 70.9015 171.564 70.7045C171.92 70.5076 172.195 70.2367 172.388 69.892C172.585 69.5473 172.683 69.1534 172.683 68.7102V61.3636ZM177.168 73V61.3636H181.759C182.637 61.3636 183.387 61.5208 184.009 61.8352C184.634 62.1458 185.109 62.5871 185.435 63.1591C185.764 63.7273 185.929 64.3958 185.929 65.1648C185.929 65.9375 185.762 66.6023 185.429 67.1591C185.096 67.7121 184.613 68.1364 183.98 68.4318C183.351 68.7273 182.59 68.875 181.696 68.875H178.622V66.8977H181.298C181.768 66.8977 182.158 66.8333 182.469 66.7045C182.779 66.5758 183.01 66.3826 183.162 66.125C183.317 65.8674 183.395 65.5473 183.395 65.1648C183.395 64.7784 183.317 64.4527 183.162 64.1875C183.01 63.9223 182.777 63.7216 182.463 63.5852C182.152 63.4451 181.76 63.375 181.287 63.375H179.628V73H177.168ZM183.452 67.7045L186.344 73H183.628L180.798 67.7045H183.452ZM189.673 73H187.037L191.054 61.3636H194.224L198.236 73H195.599L192.685 64.0227H192.594L189.673 73ZM189.509 68.4261H195.736V70.3466H189.509V68.4261ZM209.369 61.3636V73H207.244L202.182 65.6761H202.097V73H199.636V61.3636H201.795L206.818 68.6818H206.92V61.3636H209.369ZM221.669 65.4375H219.18C219.135 65.1155 219.042 64.8295 218.902 64.5795C218.762 64.3258 218.582 64.1098 218.362 63.9318C218.143 63.7538 217.889 63.6174 217.601 63.5227C217.317 63.428 217.008 63.3807 216.675 63.3807C216.072 63.3807 215.548 63.5303 215.101 63.8295C214.654 64.125 214.307 64.5568 214.061 65.125C213.815 65.6894 213.692 66.375 213.692 67.1818C213.692 68.0114 213.815 68.7083 214.061 69.2727C214.311 69.8371 214.66 70.2633 215.107 70.5511C215.554 70.839 216.071 70.983 216.658 70.983C216.987 70.983 217.292 70.9394 217.572 70.8523C217.857 70.7652 218.108 70.6383 218.328 70.4716C218.548 70.3011 218.73 70.0947 218.874 69.8523C219.021 69.6098 219.124 69.3333 219.18 69.0227L221.669 69.0341C221.605 69.5682 221.444 70.0833 221.186 70.5795C220.932 71.072 220.589 71.5133 220.158 71.9034C219.73 72.2898 219.218 72.5966 218.624 72.8239C218.033 73.0473 217.364 73.1591 216.618 73.1591C215.58 73.1591 214.652 72.9242 213.834 72.4545C213.019 71.9848 212.375 71.3049 211.902 70.4148C211.432 69.5246 211.197 68.447 211.197 67.1818C211.197 65.9129 211.436 64.8333 211.913 63.9432C212.391 63.053 213.038 62.375 213.857 61.9091C214.675 61.4394 215.595 61.2045 216.618 61.2045C217.292 61.2045 217.917 61.2992 218.493 61.4886C219.072 61.678 219.586 61.9545 220.033 62.3182C220.48 62.678 220.843 63.1193 221.124 63.642C221.408 64.1648 221.589 64.7633 221.669 65.4375ZM223.433 73V61.3636H231.274V63.392H225.893V66.1648H230.871V68.1932H225.893V70.9716H231.297V73H223.433Z" fill="#FFFDFD"/>
</svg>
