<svg width="7" height="12" viewBox="0 0 7 12" fill="none" xmlns="http://www.w3.org/2000/svg">
<path d="M0.841712 11.5916C0.763606 11.5141 0.70161 11.4219 0.659303 11.3204C0.616996 11.2188 0.595214 11.1099 0.595214 10.9999C0.595214 10.8899 0.616996 10.781 0.659303 10.6794C0.70161 10.5779 0.763606 10.4857 0.841712 10.4082L4.65837 6.59155C4.73648 6.51409 4.79847 6.42192 4.84078 6.32037C4.88309 6.21882 4.90487 6.1099 4.90487 5.99989C4.90487 5.88988 4.88309 5.78096 4.84078 5.67941C4.79847 5.57786 4.73648 5.48569 4.65837 5.40822L0.841713 1.59155C0.763606 1.51409 0.701611 1.42192 0.659304 1.32037C0.616996 1.21882 0.595215 1.1099 0.595215 0.999887C0.595215 0.889877 0.616996 0.780956 0.659304 0.679407C0.701611 0.577857 0.763606 0.48569 0.841713 0.408221C0.997848 0.253012 1.20906 0.165894 1.42921 0.165894C1.64937 0.165894 1.86058 0.253012 2.01671 0.408221L5.8417 4.23322C6.30987 4.70197 6.57283 5.33739 6.57283 5.99989C6.57283 6.66239 6.30987 7.2978 5.8417 7.76656L2.01671 11.5916C1.86057 11.7468 1.64937 11.8339 1.42921 11.8339C1.20906 11.8339 0.997847 11.7468 0.841712 11.5916V11.5916Z" fill="#0C3469"/>
</svg>
