<svg width="34" height="34" viewBox="0 0 34 34" fill="none" xmlns="http://www.w3.org/2000/svg">
<rect x="0.5" y="0.5" width="33" height="33" rx="8.5" fill="white" stroke="#D4DCF0"/>
<path d="M22.9998 10.9999C22.8123 10.8125 22.558 10.7072 22.2928 10.7072C22.0277 10.7072 21.7733 10.8125 21.5858 10.9999L16.9998 15.5859L12.4138 10.9999C12.2263 10.8125 11.972 10.7072 11.7068 10.7072C11.4417 10.7072 11.1873 10.8125 10.9998 10.9999C10.8123 11.1875 10.707 11.4418 10.707 11.7069C10.707 11.9721 10.8123 12.2264 10.9998 12.4139L15.5858 16.9999L10.9998 21.5859C10.8123 21.7735 10.707 22.0278 10.707 22.2929C10.707 22.5581 10.8123 22.8124 10.9998 22.9999C11.1873 23.1874 11.4417 23.2927 11.7068 23.2927C11.972 23.2927 12.2263 23.1874 12.4138 22.9999L16.9998 18.4139L21.5858 22.9999C21.7733 23.1874 22.0277 23.2927 22.2928 23.2927C22.558 23.2927 22.8123 23.1874 22.9998 22.9999C23.1873 22.8124 23.2926 22.5581 23.2926 22.2929C23.2926 22.0278 23.1873 21.7735 22.9998 21.5859L18.4138 16.9999L22.9998 12.4139C23.1873 12.2264 23.2926 11.9721 23.2926 11.7069C23.2926 11.4418 23.1873 11.1875 22.9998 10.9999Z" fill="#0C3469"/>
</svg>
