<svg width="14" height="7" viewBox="0 0 14 7" fill="none" xmlns="http://www.w3.org/2000/svg">
<path d="M12.8843 0.544989C12.7682 0.42883 12.6304 0.336685 12.4786 0.273816C12.3269 0.210948 12.1643 0.178589 12.0001 0.178589C11.8359 0.178589 11.6733 0.210948 11.5216 0.273816C11.3699 0.336685 11.232 0.42883 11.1159 0.544989L7.29427 4.36582C7.21614 4.44394 7.11017 4.48782 6.99969 4.48782C6.8892 4.48782 6.78324 4.44394 6.70511 4.36582L2.88427 0.544989C2.64989 0.310493 2.33195 0.178711 2.0004 0.178633C1.66885 0.178554 1.35085 0.310187 1.11636 0.544572C0.88186 0.778957 0.750078 1.0969 0.75 1.42844C0.749922 1.75999 0.881554 2.07799 1.11594 2.31249L4.93761 6.13416C5.20845 6.40502 5.52999 6.61989 5.88388 6.76649C6.23776 6.91308 6.61706 6.98853 7.00011 6.98853C7.38315 6.98853 7.76245 6.91308 8.11633 6.76649C8.47022 6.61989 8.79176 6.40502 9.06261 6.13416L12.8843 2.31249C13.1186 2.07808 13.2503 1.76019 13.2503 1.42874C13.2503 1.09728 13.1186 0.779398 12.8843 0.544989Z" fill="#0C3469"/>
</svg>
