<svg height="14" viewBox="0 0 14 14" width="14" xmlns="http://www.w3.org/2000/svg">
    <path
        d="M4.521,12.542C1.353,12.542,0,11.188,0,8.021v-3.5C0,1.353,1.353,0,4.521,0H7.437a.441.441,0,0,1,.438.438.441.441,0,0,1-.437.438H4.521C1.832.875.875,1.832.875,4.521v3.5c0,2.689.957,3.646,3.646,3.646h3.5c2.689,0,3.646-.957,3.646-3.646V5.1a.437.437,0,1,1,.875,0V8.021c0,3.168-1.353,4.521-4.521,4.521Z"
        fill="#7a8fa6" transform="translate(0.729 0.729)" />
    <path
        d="M5.1,5.541H2.771C.777,5.541,0,4.764,0,2.77V.437a.433.433,0,0,1,.268-.4A.421.421,0,0,1,.435,0,.449.449,0,0,1,.747.128L5.413,4.794a.438.438,0,0,1-.309.747ZM.875,1.493V2.77c0,1.506.39,1.9,1.9,1.9H4.048Z"
        fill="#7a8fa6" transform="translate(7.729 0.73)" />
    <path d="M14,0V14H0V0Z" fill="#7a8fa6" opacity="0" />
</svg>