<svg height="48" viewBox="0 0 50 48" width="50" xmlns="http://www.w3.org/2000/svg">
    <g data-name="Group 9610" id="Group_9610" transform="translate(-424 -1362)">
        <rect data-name="Rectangle 17898" fill="#ed9400" height="48" id="Rectangle_17898" rx="14"
            transform="translate(424 1362)" width="50" />
        <g data-name="vuesax/bold/danger" id="vuesax_bold_danger" transform="translate(436 1372)">
            <g data-name="vuesax/bold/danger" id="vuesax_bold_danger-2">
                <g id="danger">
                    <path d="M18.944,22.084H4.544A4.432,4.432,0,0,1,.483,20.149a4.462,4.462,0,0,1,.28-4.488L7.964,2.7C8.929.959,10.271,0,11.744,0s2.815.959,3.78,2.7l7.2,12.96A4.449,4.449,0,0,1,23,20.149,4.432,4.432,0,0,1,18.944,22.084Zm-7.2-6.337a.973.973,0,0,0-.223.026.711.711,0,0,0-.2.067.883.883,0,0,0-.2.1l-.085.068-.085.068a1.142,1.142,0,0,0,0,1.6l.169.135a.843.843,0,0,0,.2.1.748.748,0,0,0,.2.068,1.7,1.7,0,0,0,.225.022,1.386,1.386,0,0,0,.214-.022.717.717,0,0,0,.214-.068.856.856,0,0,0,.2-.1l.169-.135a1.142,1.142,0,0,0,0-1.6l-.085-.068-.085-.068a.9.9,0,0,0-.2-.1.688.688,0,0,0-.214-.067A.869.869,0,0,0,11.742,15.747Zm0-8.716a.845.845,0,0,0-.843.844V13.5a.845.845,0,0,0,.843.844.855.855,0,0,0,.843-.844V7.875A.855.855,0,0,0,11.744,7.031Z"
                        fill="#fff"
                        id="Vector" transform="translate(1.757 2.25)" />
                    <path d="M27,0V27H0V0Z" data-name="Vector" fill="#fff"
                        id="Vector-2" opacity="0" transform="translate(27 27) rotate(180)" />
                </g>
            </g>
        </g>
    </g>
</svg>
